<svg width="192.517" height="41.23" viewBox="0 0 192.517 41.23" xmlns="http://www.w3.org/2000/svg" xmlns:xlink="http://www.w3.org/1999/xlink" overflow="hidden"><defs><linearGradient x1="0.273" y1="0.342" x2="0.768" y2="1.179" gradientUnits="objectBoundingBox" id="linear-gradient"><stop offset="0" stop-color="#19D0F8"/><stop offset="1" stop-color="#005DFF"/></linearGradient><linearGradient x1="0.679" y1="0.06" x2="0.378" y2="1.081" gradientUnits="objectBoundingBox" id="linear-gradient-2"><stop offset="0" stop-color="#D4FF6A"/><stop offset="1" stop-color="#00E9B8"/></linearGradient><linearGradient x1="0.665" y1="0.257" x2="0.319" y2="1.198" xlink:href="#linear-gradient-2" id="linear-gradient-3"></linearGradient></defs><g id="Group_69" transform="translate(-101.295 -81.295)"><path d="M6.455-0.707C5.50625-0.690102 4.56475-0.875197 3.693-1.25 2.91158-1.58946 2.24659-2.15016 1.78-2.863 1.28869-3.66533 1.04518-4.59484 1.08-5.535 1.0555-6.32017 1.22736-7.09904 1.58-7.801 1.89617-8.39828 2.35814-8.906 2.923-9.277 3.52114-9.66197 4.17811-9.94671 4.868-10.12 5.62051-10.314 6.38726-10.4477 7.161-10.52 8.10233-10.6187 8.86133-10.7117 9.438-10.799 9.87932-10.8434 10.3065-10.9797 10.692-11.199 10.9507-11.3718 11.099-11.6683 11.082-11.979L11.082-12.042C11.1163-12.6263 10.8861-13.1951 10.455-13.591 9.95008-13.985 9.31813-14.18 8.679-14.139 7.9946-14.173 7.31767-13.9838 6.75-13.6 6.29326-13.2756 5.95871-12.8073 5.8-12.27L1.647-12.607C1.83832-13.5507 2.26639-14.4302 2.891-15.163 3.54254-15.9062 4.36669-16.478 5.291-16.828 6.38033-17.2373 7.53753-17.4358 8.701-17.413 9.57349-17.4164 10.443-17.3103 11.289-17.097 12.0746-16.9034 12.8196-16.5715 13.489-16.117 14.126-15.681 14.6484-15.0979 15.012-14.417 15.4022-13.6491 15.5943-12.796 15.571-11.935L15.571-1.015 11.314-1.015 11.314-3.258 11.188-3.258C10.9275-2.75161 10.5732-2.29927 10.144-1.925 9.68351-1.52616 9.14997-1.22051 8.573-1.025 7.88987-0.800784 7.17385-0.693279 6.455-0.707ZM7.741-3.807C8.34818-3.79604 8.94887-3.93334 9.491-4.207 9.97593-4.45165 10.387-4.82095 10.682-5.277 10.971-5.73188 11.1211-6.26113 11.114-6.8L11.114-8.518C10.9348-8.40959 10.7417-8.32615 10.54-8.27 10.2973-8.196 10.025-8.12933 9.723-8.07 9.421-8.01067 9.11867-7.958 8.816-7.912 8.514-7.866 8.24-7.82567 7.994-7.791 7.5197-7.72799 7.05552-7.60396 6.613-7.422 6.25349-7.27878 5.93745-7.04443 5.696-6.742 5.4712-6.43572 5.35601-6.0627 5.369-5.683 5.33777-5.13261 5.59015-4.60446 6.038-4.283 6.54075-3.9475 7.13712-3.78046 7.741-3.806ZM25.041-0.7C23.5466-0.65836 22.0691-1.02446 20.767-1.759 19.5871-2.45234 18.6347-3.47428 18.026-4.7 17.3689-6.05181 17.042-7.54025 17.072-9.043 17.039-10.5555 17.3696-12.0538 18.036-13.412 18.6501-14.6355 19.6034-15.6565 20.782-16.353 22.0715-17.0854 23.5366-17.4515 25.019-17.412 26.298-17.4404 27.5667-17.1774 28.729-16.643 29.7494-16.165 30.6203-15.4179 31.248-14.482 31.8815-13.5068 32.235-12.3764 32.27-11.214L28.035-11.214C27.9492-11.9531 27.617-12.6418 27.092-13.169 26.5529-13.6763 25.8316-13.9443 25.092-13.912 24.4409-13.9258 23.8029-13.7279 23.274-13.348 22.724-12.9275 22.3053-12.359 22.067-11.709 21.7593-10.8776 21.6127-9.99523 21.635-9.109 21.6122-8.21175 21.757-7.31813 22.062-6.474 22.2968-5.8172 22.7163-5.24217 23.27-4.818 23.8001-4.43534 24.4403-4.23561 25.094-4.249 25.5747-4.2415 26.0501-4.34989 26.48-4.565 26.8939-4.77916 27.2453-5.09679 27.5-5.487 27.7841-5.92785 27.9659-6.42672 28.032-6.947L32.269-6.947C32.2236-5.79045 31.8764-4.66591 31.262-3.685 30.6523-2.73777 29.7936-1.97664 28.78-1.485 27.6119-0.935335 26.3315-0.666508 25.041-0.7ZM38.441-0.711C37.4929-0.692981 36.5517-0.876708 35.68-1.25 34.8986-1.58946 34.2336-2.15016 33.767-2.863 33.2757-3.66533 33.0322-4.59484 33.067-5.535 33.0425-6.32017 33.2144-7.09904 33.567-7.801 33.8832-8.39828 34.3451-8.906 34.91-9.277 35.5081-9.66197 36.1651-9.94671 36.855-10.12 37.6075-10.314 38.3743-10.4477 39.148-10.52 40.0893-10.6187 40.8483-10.7117 41.425-10.799 41.8663-10.8434 42.2935-10.9797 42.679-11.199 42.9377-11.3718 43.086-11.6683 43.069-11.979L43.069-12.042C43.1033-12.6263 42.8731-13.1951 42.442-13.591 41.9371-13.985 41.3051-14.18 40.666-14.139 39.9824-14.175 39.3055-13.9883 38.737-13.607 38.2801-13.2817 37.9458-12.8122 37.788-12.274L33.635-12.611C33.8263-13.5547 34.2544-14.4342 34.879-15.167 35.5305-15.9102 36.3547-16.482 37.279-16.832 38.3683-17.2413 39.5255-17.4398 40.689-17.417 41.5615-17.4204 42.431-17.3143 43.277-17.101 44.0626-16.9074 44.8076-16.5755 45.477-16.121 46.1147-15.6833 46.6372-15.0981 47-14.415 47.3902-13.6471 47.5823-12.794 47.559-11.933L47.559-1.013 43.3-1.013 43.3-3.258 43.174-3.258C42.9135-2.75161 42.5592-2.29927 42.13-1.925 41.6695-1.52616 41.136-1.22051 40.559-1.025 39.8759-0.800784 39.1599-0.693279 38.441-0.707ZM39.727-3.811C40.3342-3.80004 40.9349-3.93734 41.477-4.211 41.9619-4.45565 42.373-4.82495 42.668-5.281 42.9562-5.73474 43.1063-6.26249 43.1-6.8L43.1-8.518C42.9208-8.40959 42.7277-8.32615 42.526-8.27 42.2833-8.196 42.011-8.12933 41.709-8.07 41.407-8.01067 41.1047-7.958 40.802-7.912 40.5-7.866 40.226-7.82567 39.98-7.791 39.5057-7.72799 39.0415-7.60396 38.599-7.422 38.2395-7.27878 37.9235-7.04443 37.682-6.742 37.4572-6.43572 37.342-6.0627 37.355-5.683 37.3238-5.13261 37.5761-4.60446 38.024-4.283 38.5268-3.9475 39.1231-3.78046 39.727-3.806ZM55.679-0.749C54.4978-0.734022 53.3379-1.06457 52.342-1.7 51.3006-2.39124 50.4808-3.36833 49.981-4.514 49.3611-5.95528 49.0642-7.51477 49.111-9.083 49.059-10.6753 49.3666-12.2589 50.011-13.716 50.5226-14.8526 51.3524-15.8167 52.4-16.492 53.3816-17.1034 54.5167-17.4231 55.673-17.414 56.4557-17.44 57.2337-17.2828 57.945-16.955 58.5107-16.6823 59.0134-16.2947 59.421-15.817 59.7655-15.413 60.0544-14.9647 60.28-14.484L60.417-14.484 60.417-22.6 64.897-22.6 64.897-1.013 60.464-1.013 60.464-3.606 60.274-3.606C60.0405-3.12237 59.7406-2.6737 59.383-2.273 58.9695-1.8104 58.4645-1.43857 57.9-1.181 57.2008-0.874203 56.4422-0.726645 55.679-0.749ZM57.1-4.322C57.7639-4.30358 58.4137-4.51559 58.939-4.922 59.4717-5.36058 59.8733-5.93731 60.1-6.589 60.3859-7.39738 60.5234-8.25074 60.506-9.108 60.5242-9.96156 60.3887-10.8114 60.106-11.617 59.8837-12.264 59.4817-12.8343 58.947-13.261 58.4147-13.6562 57.7647-13.8606 57.102-13.841 56.4293-13.8626 55.77-13.6506 55.236-13.241 54.7047-12.8045 54.3066-12.2276 54.087-11.576 53.8133-10.7829 53.6813-9.94784 53.697-9.109 53.6832-8.26098 53.8186-7.41714 54.097-6.616 54.3171-5.95848 54.7148-5.37463 55.246-4.929 55.7743-4.51669 56.4301-4.30198 57.1-4.322ZM74.613-0.7C73.1155-0.658013 71.633-1.00863 70.313-1.717 69.1273-2.38376 68.1658-3.38701 67.55-4.6 66.874-5.9775 66.5412-7.49806 66.58-9.032 66.5469-10.5503 66.8796-12.0543 67.55-13.417 68.1623-14.6382 69.1114-15.6588 70.285-16.358 71.5451-17.0824 72.9799-17.447 74.433-17.412 75.4515-17.4206 76.4633-17.2476 77.421-16.901 78.3298-16.5696 79.1565-16.0464 79.845-15.367 80.5663-14.6403 81.119-13.764 81.464-12.8 81.8721-11.6411 82.0685-10.4184 82.044-9.19L82.044-7.957 68.373-7.957 68.373-10.74 77.818-10.74C77.8311-11.34 77.687-11.9329 77.4-12.46 77.1266-12.951 76.7236-13.3574 76.235-13.635 75.7086-13.9274 75.114-14.0748 74.512-14.062 73.8777-14.0745 73.2522-13.9123 72.704-13.593 72.1909-13.291 71.7672-12.8583 71.476-12.339 71.1783-11.8056 71.0224-11.2048 71.023-10.594L71.023-7.948C71.0044-7.22983 71.158-6.51765 71.471-5.871 71.7524-5.30618 72.1942-4.83693 72.741-4.522 73.3374-4.19376 74.0105-4.03017 74.691-4.048 75.1561-4.04281 75.619-4.1141 76.061-4.259 76.4581-4.38888 76.8217-4.60466 77.126-4.891 77.4261-5.18014 77.6566-5.53372 77.8-5.925L81.953-5.651C81.7574-4.68367 81.3124-3.78427 80.662-3.042 79.9748-2.27464 79.1148-1.68195 78.153-1.313 77.0232-0.883649 75.8214-0.675538 74.613-0.7ZM83.639-1.016 83.639-17.2 87.919-17.2 87.919-14.343 88.109-14.343C88.4169-15.2524 89.0081-16.0392 89.796-16.588 90.6289-17.1499 91.6167-17.4373 92.621-17.41 93.6296-17.4402 94.6219-17.1507 95.456-16.583 96.226-16.0458 96.7791-15.2515 97.016-14.343L97.185-14.343C97.5144-15.2689 98.1492-16.055 98.985-16.572 99.9088-17.1463 100.981-17.4376 102.068-17.41 103.443-17.4638 104.778-16.9424 105.752-15.971 106.754-14.8593 107.265-13.3905 107.17-11.897L107.17-1.013 102.69-1.013 102.69-11.013C102.747-11.7586 102.487-12.4937 101.973-13.037 101.488-13.4897 100.844-13.7323 100.181-13.712 99.4612-13.7515 98.7614-13.4673 98.273-12.937 97.7973-12.3668 97.5528-11.6388 97.588-10.897L97.588-1.01 93.231-1.01 93.231-11.11C93.267-11.8087 93.0222-12.4928 92.551-13.01 92.0819-13.4874 91.4327-13.7439 90.764-13.716 90.2894-13.7229 89.8228-13.5931 89.42-13.342 89.017-13.0857 88.6911-12.7249 88.477-12.298 88.236-11.8122 88.1166-11.2751 88.129-10.733L88.129-1.014ZM109.372-1.016 109.372-17.2 113.862-17.2 113.862-1.013ZM111.628-19.294C110.991-19.2819 110.375-19.5224 109.915-19.963 109.457-20.3711 109.198-20.9568 109.203-21.57 109.198-22.1811 109.458-22.7644 109.915-23.17 110.375-23.6106 110.991-23.8511 111.628-23.839 112.265-23.8511 112.881-23.6106 113.341-23.17 113.798-22.7642 114.057-22.1809 114.052-21.57 114.057-20.9569 113.798-20.3713 113.341-19.963 112.881-19.521 112.266-19.279 111.628-19.29ZM120.728-0.711C119.779-0.694102 118.838-0.879197 117.966-1.254 117.185-1.59346 116.52-2.15416 116.053-2.867 115.562-3.66933 115.318-4.59884 115.353-5.539 115.328-6.32417 115.5-7.10304 115.853-7.805 116.171-8.40129 116.634-8.90763 117.2-9.277 117.798-9.66197 118.455-9.94671 119.145-10.12 119.898-10.314 120.664-10.4477 121.438-10.52 122.379-10.6187 123.138-10.7117 123.715-10.799 124.156-10.8434 124.583-10.9797 124.969-11.199 125.228-11.3718 125.376-11.6683 125.359-11.979L125.359-12.042C125.393-12.6263 125.163-13.1951 124.732-13.591 124.227-13.985 123.595-14.18 122.956-14.139 122.272-14.175 121.596-13.9883 121.027-13.607 120.57-13.2817 120.236-12.8122 120.078-12.274L115.925-12.611C116.116-13.5547 116.544-14.4342 117.169-15.167 117.821-15.9102 118.645-16.482 119.569-16.832 120.658-17.2413 121.816-17.4398 122.979-17.417 123.852-17.4204 124.721-17.3143 125.567-17.101 126.353-16.9074 127.098-16.5755 127.767-16.121 128.404-15.685 128.926-15.1019 129.29-14.421 129.68-13.6531 129.872-12.8 129.849-11.939L129.849-1.019 125.591-1.019 125.591-3.258 125.465-3.258C125.204-2.75161 124.85-2.29927 124.421-1.925 123.961-1.52616 123.427-1.22051 122.85-1.025 122.165-0.800227 121.448-0.692715 120.727-0.707ZM122.014-3.811C122.621-3.80004 123.222-3.93734 123.764-4.211 124.249-4.45565 124.66-4.82495 124.955-5.281 125.245-5.73731 125.395-6.26844 125.387-6.809L125.387-8.518C125.208-8.40959 125.015-8.32615 124.813-8.27 124.57-8.196 124.298-8.12933 123.996-8.07 123.694-8.01067 123.392-7.958 123.089-7.912 122.787-7.866 122.513-7.82567 122.267-7.791 121.793-7.72799 121.329-7.60396 120.886-7.422 120.526-7.27878 120.21-7.04443 119.969-6.742 119.744-6.43572 119.629-6.0627 119.642-5.683 119.611-5.13261 119.863-4.60446 120.311-4.283 120.813-3.9477 121.409-3.78067 122.013-3.806ZM136.489-10.378 136.489-1.018 132-1.018 132-17.2 136.28-17.2 136.28-14.343 136.47-14.343C136.812-15.2647 137.444-16.0507 138.27-16.583 139.188-17.1554 140.255-17.4431 141.337-17.41 142.366-17.4343 143.382-17.1793 144.278-16.672 145.118-16.1763 145.796-15.4465 146.228-14.572 146.716-13.5589 146.956-12.4442 146.928-11.32L146.928-1.013 142.438-1.013 142.438-10.52C142.495-11.3637 142.223-12.1966 141.679-12.844 141.128-13.4185 140.355-13.7245 139.56-13.682 139.002-13.6942 138.45-13.5598 137.96-13.292 137.497-13.0293 137.123-12.635 136.885-12.159 136.614-11.6031 136.479-10.9912 136.489-10.373Z" id="Path_21" fill="#FFFFFF" transform="translate(146.887 111.446)"/><g id="Group_56" transform="translate(101.295 81.295)"><path d="M849.5 856.94 832.053 845.316 821.641 838.383C820.839 837.853 820.532 836.825 820.913 835.942L820.923 835.923C820.933 835.893 820.949 835.863 820.963 835.834L830.252 817.277C830.257 817.265 830.264 817.254 830.272 817.244 830.295 817.201 830.318 817.158 830.345 817.115L830.345 817.115C830.893 816.243 832.013 815.929 832.934 816.39 832.963 816.403 832.992 816.418 833.019 816.436 833.365 816.63 833.644 816.924 833.819 817.279L852.393 854.391C852.886 855.376 852.487 856.574 851.502 857.067 850.861 857.388 850.096 857.339 849.5 856.94Z" id="Path_18" fill="url(#linear-gradient)" transform="translate(-811.383 -816.164)"/><path d="M819.7 871.382 802.078 883.118C801.18 883.717 799.967 883.475 799.368 882.577 798.978 881.994 798.932 881.246 799.246 880.618L808.561 862.008C808.18 862.891 808.487 863.919 809.289 864.449Z" id="Path_19" fill="url(#linear-gradient-2)" transform="translate(-799.027 -842.23)"/><path d="M842.444 838.383 832.056 845.3 821.644 838.367C820.842 837.837 820.535 836.809 820.916 835.926L820.926 835.906 830.274 817.226C830.297 817.183 830.32 817.141 830.347 817.097L830.347 817.097C830.881 816.206 832.017 815.888 832.936 816.372 832.965 816.385 832.994 816.401 833.021 816.418 833.344 816.61 833.605 816.891 833.772 817.228L843.107 835.884C843.547 836.765 843.263 837.836 842.444 838.383Z" id="Path_20" fill="url(#linear-gradient-3)" transform="translate(-811.383 -816.147)"/></g></g></svg>